HIERARCHY
ROOT Hips
{
 OFFSET 0.000000 0.000000 0.000000
 CHANNELS 6 Xposition Yposition Zposition Yrotation Xrotation Zrotation
 JOINT Chest
 {
  OFFSET 0.000000 10.080317 -0.001081
  CHANNELS 3 Yrotation Xrotation Zrotation
  JOINT Chest2
  {
   OFFSET 0.000000 11.096852 0.001963
   CHANNELS 3 Yrotation Xrotation Zrotation
   JOINT Chest3
   {
    OFFSET 0.000000 10.026525 0.000000
    CHANNELS 3 Yrotation Xrotation Zrotation
    JOINT Chest4
    {
     OFFSET 0.000000 10.026525 0.000000
     CHANNELS 3 Yrotation Xrotation Zrotation
     JOINT Neck
     {
      OFFSET 0.000000 14.108171 0.000000
      CHANNELS 3 Yrotation Xrotation Zrotation
      JOINT Head
      {
       OFFSET 0.000000 9.333493 0.004668
       CHANNELS 3 Yrotation Xrotation Zrotation
       End Site
       {
        OFFSET 0.000000 17.851786 0.002438
       }
      }
     }
     JOINT RightCollar
     {
      OFFSET -3.071622 7.873185 0.000000
      CHANNELS 3 Yrotation Xrotation Zrotation
      JOINT RightShoulder
      {
       OFFSET -14.378659 0.000000 0.000000
       CHANNELS 3 Yrotation Xrotation Zrotation
       JOINT RightElbow
       {
        OFFSET -30.778728 0.000000 0.000000
        CHANNELS 3 Yrotation Xrotation Zrotation
        JOINT RightWrist
        {
         OFFSET -25.164217 0.000000 0.000000
         CHANNELS 3 Yrotation Xrotation Zrotation
         End Site
         {
          OFFSET -18.796788 0.000000 0.000000
         }
        }
       }
      }
     }
     JOINT LeftCollar
     {
      OFFSET 3.071622 7.873185 0.000000
      CHANNELS 3 Yrotation Xrotation Zrotation
      JOINT LeftShoulder
      {
       OFFSET 14.378659 0.000000 0.000000
       CHANNELS 3 Yrotation Xrotation Zrotation
       JOINT LeftElbow
       {
        OFFSET 30.778728 0.000000 0.000000
        CHANNELS 3 Yrotation Xrotation Zrotation
        JOINT LeftWrist
        {
         OFFSET 25.164217 0.000000 0.000000
         CHANNELS 3 Yrotation Xrotation Zrotation
         End Site
         {
          OFFSET 18.796788 0.000000 0.000000
         }
        }
       }
      }
     }
    }
   }
  }
 }
 JOINT RightHip
 {
  OFFSET -8.194923 0.005295 0.000540
  CHANNELS 3 Yrotation Xrotation Zrotation
  JOINT RightKnee
  {
   OFFSET 0.000000 -42.473320 -0.000511
   CHANNELS 3 Yrotation Xrotation Zrotation
   JOINT RightAnkle
   {
    OFFSET 0.000000 -41.474259 -0.000865
    CHANNELS 3 Yrotation Xrotation Zrotation
    JOINT RightToe
    {
     OFFSET 0.000000 -7.354994 16.712725
     CHANNELS 3 Yrotation Xrotation Zrotation
     End Site
     {
      OFFSET 0.000000 -1.553903 6.764158
     }
    }
   }
  }
 }
 JOINT LeftHip
 {
  OFFSET 8.194923 0.005295 0.000540
  CHANNELS 3 Yrotation Xrotation Zrotation
  JOINT LeftKnee
  {
   OFFSET 0.000000 -42.473320 -0.000511
   CHANNELS 3 Yrotation Xrotation Zrotation
   JOINT LeftAnkle
   {
    OFFSET 0.000000 -41.474259 -0.000865
    CHANNELS 3 Yrotation Xrotation Zrotation
    JOINT LeftToe
    {
     OFFSET 0.000000 -7.354994 16.712725
     CHANNELS 3 Yrotation Xrotation Zrotation
     End Site
     {
      OFFSET 0.000000 -1.553903 6.764158
     }
    }
   }
  }
 }
}
MOTION
Frames: 10
Frame Time: 0.016667
0.000000 91.111157 0.000000 0.000000 -5.826342 0.000000 0.000000 11.116423 0.000000 0.000000 -5.290081 0.000000 0.000000 0.000000 0.000000 0.000000 0.000000 0.000000 0.000000 12.665069 0.000000 0.000000 0.575450 0.000000 0.000000 0.000000 0.000000 0.000000 0.000000 0.000000 2.337306 0.000000 0.000000 -2.337306 0.000000 0.000000 0.000000 0.000000 0.000000 0.000000 0.000000 0.000000 -2.337306 0.000000 0.000000 2.337306 0.000000 0.000000 0.000000 8.578828 0.000000 0.000000 1.905768 0.000000 0.000000 -4.658254 0.000000 0.000000 0.000000 0.000000 0.000000 8.578828 0.000000 0.000000 1.905768 0.000000 0.000000 -4.658254 0.000000 0.000000 0.000000 0.000000
-8.096547 92.730631 -5.825339 -3.194028 -4.146118 0.227894 -0.936687 2.778631 -0.269740 -0.382704 1.238654 -0.157055 -0.382704 1.238654 -0.157055 -0.286699 0.929089 -0.117011 -1.945209 18.558981 1.514219 -4.064686 -1.637982 3.413922 4.923443 -2.123371 11.645918 0.225289 -4.433079 65.527771 20.144929 17.292788 12.010323 -4.498441 9.054459 -10.135311 -2.851601 -0.536844 -9.201739 2.444175 -11.220502 -68.663002 -13.963985 19.821610 -16.220404 7.617254 1.070984 14.743676 -3.215516 8.604502 -1.426254 -3.440676 0.842578 0.683525 -0.659202 -4.967293 0.148589 0.101083 0.148120 0.007150 -0.676584 7.786186 3.759840 1.805140 2.756031 0.465431 -1.173143 -5.533193 -4.167417 -0.124710 -0.127709 -0.105731
-8.076950 92.735557 -5.881339 -3.289197 -4.148516 0.217536 -0.932883 2.798625 -0.260675 -0.380522 1.247442 -0.154879 -0.380522 1.247442 -0.154879 -0.285064 0.935678 -0.115378 -1.944116 18.550545 1.520480 -4.065048 -1.653390 3.425404 4.885535 -2.130199 11.628396 0.229923 -4.420654 65.513261 20.100124 17.335241 11.993650 -4.456266 9.081354 -10.132210 -2.888770 -0.548647 -9.191158 2.455818 -11.249519 -68.675169 -13.962331 19.786134 -16.209936 7.654274 1.110891 14.762641 -3.282618 8.551447 -1.441633 -3.329156 0.854174 0.686316 -0.610938 -4.925892 0.162456 0.104220 0.139122 0.004819 -0.684830 7.751362 3.730679 1.824394 2.783366 0.497216 -1.101625 -5.521403 -4.148708 -0.127273 -0.138537 -0.111579
-8.050161 92.739183 -5.939695 -3.377095 -4.145446 0.207609 -0.922889 2.809931 -0.254382 -0.376045 1.252916 -0.152311 -0.376045 1.252916 -0.152311 -0.281710 0.939781 -0.113458 -1.947040 18.553535 1.532473 -4.074197 -1.647129 3.448238 4.859621 -2.121190 11.624211 0.231086 -4.415469 65.493362 20.034024 17.346414 11.950646 -4.441440 9.099304 -10.152666 -2.917279 -0.558007 -9.185645 2.465554 -11.270952 -68.691312 -13.967388 19.771632 -16.204516 7.720584 1.117593 14.769299 -3.286891 8.499976 -1.458934 -3.285369 0.852596 0.702695 -0.563026 -4.875165 0.177031 0.102989 0.130839 0.001049 -0.682194 7.700854 3.701693 1.885788 2.823965 0.519932 -1.077430 -5.516640 -4.120344 -0.130246 -0.145965 -0.114318
-8.022546 92.743486 -5.996599 -3.442645 -4.142748 0.197768 -0.912271 2.822185 -0.250450 -0.372304 1.258266 -0.151522 -0.372304 1.258266 -0.151522 -0.278905 0.943792 -0.112870 -1.934602 18.561869 1.544369 -4.054910 -1.631670 3.465677 4.885250 -2.117224 11.619762 0.159694 -4.432563 65.472777 20.005106 17.382812 11.945321 -4.457256 9.087101 -10.155369 -2.902674 -0.574014 -9.182449 2.363729 -11.270397 -68.675193 -13.992629 19.726485 -16.214494 7.795808 1.094305 14.784549 -3.295182 8.457587 -1.486667 -3.310493 0.843321 0.743721 -0.482888 -4.822988 0.173230 0.105947 0.123421 0.003597 -0.697562 7.641935 3.684023 1.933048 2.879592 0.524375 -1.074643 -5.520741 -4.084894 -0.130599 -0.151424 -0.115013
-7.996425 92.745988 -6.050174 -3.517424 -4.136045 0.188175 -0.911753 2.831961 -0.247376 -0.373306 1.261539 -0.149086 -0.373306 1.261539 -0.149086 -0.279661 0.946246 -0.111040 -1.927911 18.577460 1.552572 -4.044683 -1.602654 3.477910 4.885956 -2.119670 11.608214 0.142081 -4.433694 65.455225 19.984501 17.383280 11.931717 -4.456605 9.098567 -10.126604 -2.904953 -0.601895 -9.169717 2.359133 -11.270408 -68.666695 -14.015797 19.731378 -16.257321 7.802091 1.091892 14.792229 -3.295328 8.417045 -1.510253 -3.274786 0.822427 0.778891 -0.453304 -4.769033 0.173514 0.104446 0.120553 0.004377 -0.661525 7.576970 3.679361 1.973470 2.939680 0.515245 -1.093724 -5.530445 -4.046189 -0.128185 -0.152159 -0.112285
-7.965421 92.749376 -6.097258 -3.595952 -4.128282 0.178592 -0.898982 2.840063 -0.245022 -0.368920 1.264552 -0.147752 -0.368920 1.264552 -0.147752 -0.276373 0.948503 -0.110046 -1.921759 18.593103 1.562457 -4.035985 -1.573436 3.493401 4.815222 -2.129754 11.607851 0.192593 -4.430548 65.436970 19.956520 17.401878 11.940062 -4.466560 9.098937 -10.122939 -2.940795 -0.623448 -9.165271 2.373974 -11.275625 -68.654353 -14.048686 19.750080 -16.288717 7.798235 1.105127 14.814211 -3.297921 8.373007 -1.537236 -3.272508 0.813785 0.812766 -0.374173 -4.721621 0.167888 0.104885 0.116213 0.011963 -0.620782 7.518956 3.661604 1.994594 2.991392 0.524680 -1.071944 -5.533302 -4.016195 -0.127019 -0.155670 -0.109809
-7.936921 92.753627 -6.144832 -3.683431 -4.122348 0.164406 -0.894436 2.843454 -0.235282 -0.368391 1.266506 -0.144144 -0.368391 1.266506 -0.144144 -0.275984 0.949967 -0.107340 -1.910653 18.611525 1.570733 -4.017566 -1.539370 3.504220 4.799031 -2.138235 11.594845 0.208380 -4.430900 65.399949 19.959429 17.419669 11.949321 -4.457269 9.103928 -10.113346 -2.960681 -0.630432 -9.164305 2.363881 -11.289303 -68.638855 -14.075087 19.753648 -16.310785 7.767287 1.124019 14.826641 -3.287045 8.330032 -1.553719 -3.252391 0.803793 0.839672 -0.317711 -4.668265 0.166059 0.103892 0.109972 0.017018 -0.580521 7.458999 3.665480 2.035359 3.055703 0.502324 -1.062274 -5.541559 -3.969408 -0.124806 -0.159445 -0.109021
-7.907749 92.758447 -6.185916 -3.792362 -4.123078 0.151142 -0.889695 2.851245 -0.222873 -0.368235 1.269580 -0.139223 -0.368235 1.269580 -0.139223 -0.275876 0.952269 -0.103648 -1.918694 18.620879 1.572590 -4.032548 -1.521544 3.509845 4.784609 -2.148637 11.571506 0.196101 -4.427329 65.371550 20.001007 17.429990 11.973123 -4.459115 9.126042 -10.112445 -2.976071 -0.645461 -9.167389 2.368470 -11.297217 -68.650197 -14.087270 19.780804 -16.317680 7.740957 1.149190 14.862163 -3.325003 8.306991 -1.580757 -3.203942 0.767405 0.871911 -0.233531 -4.599407 0.158400 0.105449 0.101980 0.023255 -0.576616 7.417613 3.668182 2.087113 3.117298 0.468936 -1.034479 -5.555200 -3.910599 -0.123359 -0.162954 -0.113385
-7.875044 92.763213 -6.223347 -3.894207 -4.125580 0.146000 -0.884084 2.855253 -0.220797 -0.366862 1.271097 -0.136349 -0.366862 1.271097 -0.136349 -0.274852 0.953405 -0.101494 -1.914655 18.634048 1.574342 -4.025183 -1.497209 3.511206 4.773838 -2.146068 11.562473 0.194234 -4.436037 65.333763 20.036208 17.402007 11.995606 -4.451279 9.143792 -10.096813 -2.993338 -0.650756 -9.154261 2.362842 -11.301089 -68.654115 -14.084091 19.786824 -16.312625 7.667917 1.146609 14.872502 -3.326112 8.287268 -1.606606 -3.158975 0.733956 0.888254 -0.186166 -4.539016 0.161484 0.103867 0.098352 0.029772 -0.564895 7.372611 3.638292 2.128505 3.185931 0.465066 -0.999506 -5.575119 -3.856758 -0.123507 -0.161708 -0.116296
